<mxfile host="65bd71144e">
    <diagram id="RNgY-i5yXF161RartkI-" name="Page-1">
        <mxGraphModel dx="1086" dy="555" grid="0" gridSize="10" guides="1" tooltips="1" connect="1" arrows="1" fold="1" page="1" pageScale="1" pageWidth="827" pageHeight="1169" math="0" shadow="0">
            <root>
                <mxCell id="0"/>
                <mxCell id="1" parent="0"/>
                <mxCell id="3" value="" style="shape=image;verticalLabelPosition=bottom;labelBackgroundColor=default;verticalAlign=top;aspect=fixed;imageAspect=0;image=https://upload.wikimedia.org/wikipedia/commons/thumb/5/5a/DOM-model.svg/1200px-DOM-model.svg.png;" vertex="1" parent="1">
                    <mxGeometry x="87.99662048339843" y="5.002633361816407" width="502" height="520" as="geometry"/>
                </mxCell>
            </root>
        </mxGraphModel>
    </diagram>
</mxfile>